<svg xmlns="http://www.w3.org/2000/svg" viewBox="0 0 238.3 304.69"><defs><style>.cls-1{fill:#01b36c;}.cls-2{fill:#edf7f6;}.cls-3{fill:#008c56;}</style></defs><title>Asset 1</title><g id="Layer_2" data-name="Layer 2"><g id="Layer_5" data-name="Layer 5"><path class="cls-1" d="M142.31,183.45l2.37-5.21L91.29,132.05q-2.37,5.19-4.72,10.38L84.8,146.3l53.39,46.19Z"/><path class="cls-1" d="M62,196.34q-2.64,5.81-5.27,11.6l-5.28,11.6a33.1,33.1,0,0,1-2.07,4.75c-2.45,3.84-2.92,7.38.93,10.62L63,250.58h0a38.93,38.93,0,0,1,4.55,5.82,5.89,5.89,0,0,0,6,3c9-.56,18-.56,27.05-.78,6.66,1.12,9.56-2.79,11.2-8.38a3.2,3.2,0,0,1,.39-.62q2.48-5.46,5-10.92l2.76-6.06-53.39-46.2Z"/><path class="cls-1" d="M156.59,152.06l5.28-11.6,5-10.92q2-4.44,4-8.87l5.58-12.28q2.49-5.46,5-10.92l5.28-11.6a42,42,0,0,1,2.71-6.11c2.21-3.45,2.3-6.51-.72-9.46-5.92-6.7-11.51-13.68-16.86-20.85h0c-2.52-1.64-3.54-6-7.86-4.39a43.87,43.87,0,0,1-10,.37,147.2,147.2,0,0,1-18.43.68c-6.4-.92-6.68,4.71-8.88,8.29L121.34,66q-2.48,5.46-5,10.92l-5.27,11.6-4.35,9.56-5.28,11.6-1.94,4.25,53.39,46.19C154.15,157.43,155.37,154.75,156.59,152.06Z"/><path class="cls-1" d="M71.6,121.62l2.16-4.74L55.83,101.37l-4.62,10.15c-.62,1.37-1.24,2.74-1.87,4.1l17.93,15.51Z"/><path class="cls-1" d="M86.5,88.87l4.35-9.56,5.28-11.6,5-10.92,5.28-11.6a46.42,46.42,0,0,1,2.53-5.72,4.69,4.69,0,0,0-.14-5.4h0C105,29.58,102.15,24.48,99,19.58h0c-.86-1.16-1.77-2.29-2.57-3.49-1.22-1.81-1.43-.25-1.91.41a1.29,1.29,0,0,1-.15.17q-1.71,3.75-3.41,7.5-2.49,5.46-5,10.92h0l-5.28,11.6-5,10.92L71.08,67.85,66.43,78.08c-.79,1.73-1.57,3.45-2.36,5.17L82,98.76Z"/><path class="cls-1" d="M4.81,224.49l17.64-2.3c2.84,0,4.27-1.61,5.21-4.18s2.36-5.12,3.57-7.68l5.28-11.6,5.28-11.6,5-10.92q1.11-2.46,2.24-4.92L31.07,155.78q-2.19,4.83-4.39,9.65L21.4,177l-5.28,11.6-4.66,10.24q-2.48,5.46-5,10.91l-4.35,9.56c-.72,1.59-1.43,3.19-2.15,4.79C1.5,225.61,3.24,223.94,4.81,224.49Z"/><path class="cls-1" d="M137.4,247.93q-2.47,5.46-5,10.92a28.59,28.59,0,0,1-2.1,4.79c-2.26,3.41-1.67,6.38.93,9.22h0c3.85,5.56,7.71,11.11,12,17.22,1.29-2.83,2.34-5.16,3.4-7.48l5.9-13,2.87-6.3-17.93-15.51Z"/><path class="cls-1" d="M157.27,204.26l-1.54,3.4,17.92,15.52q2-4.41,4-8.82c.83-1.81,1.65-3.62,2.48-5.44l-17.93-15.51Q159.75,198.84,157.27,204.26Z"/><path class="cls-1" d="M238.14,79.67a228.2,228.2,0,0,1-22.7,2.88h0c-2.31.27-3.58,1.56-4.42,3.75-1.15,3-2.69,5.86-4.06,8.78l-5.28,11.6-5,10.92-5.59,12.28-4,8.87q-2.47,5.46-5,10.92-2.62,5.81-5.27,11.6-2.49,5.46-5,10.92l-1.41,3.1,17.92,15.51L192,183l5.28-11.6,5-10.92h0l5-10.91q2.33-5.13,4.66-10.24l5.28-11.6q2.47-5.46,5-10.92l5-10.92q2.49-5.46,5-10.92l5.28-11.6C237.38,82.07,238.77,81.11,238.14,79.67Z"/><path class="cls-1" d="M112.41,284.43c-1.4-1.77-2.37-4.13-5.26-3.9h0c-10.54.68-21.08,1.15-31.64,1.12h0a4.26,4.26,0,0,0-4.26,3.15c-1,2.74-2.43,5.31-3.68,8L63.84,301l-.08.22c-.39,1.07-.78,2.16-1.27,3.52l16.37-.19h0q13.4-1.1,26.83-1c5.12-.12,10.24-.22,15.36-.37,1.12,0,2.52.6,3.15-1h0c-4.16-5.75-8.18-11.59-11.79-17.7Z"/><path class="cls-2" d="M50.42,270.25c-7-7.93-13.49-16.2-19.93-24.54-1.67-2.81-4.34-1.1-6.56-1.44h0c-5.86.82-11.73,1.62-17.59,2.48-1.19.18-2.49,0-3.53.82C7,253.1,12,258,15.82,263.77h0c4.5,5.34,9.05,10.65,13.08,16.36a76,76,0,0,1,8.43,10.43h0c1.79,1.1,2.37,3.43,4.47,4.41l1.56-2.82.23-.41q1.88-4.1,3.73-8.19c1.13-2.58,2.09-5.24,3.43-7.7,1.13-2.07,1.19-3.82-.33-5.6Z"/><path class="cls-1" d="M126.67,22.14h0c2.45,3.27,6,1.15,9,1.85l26.79-1c2.67.1,4.18-1.13,5.06-3.71A69.85,69.85,0,0,1,170.92,12l4-8.87c.08-1,1.11-1.87.69-3.09L163,.1h0a147.12,147.12,0,0,1-18.42.68h0a159.75,159.75,0,0,1-18.43.67c-1.44.14-2.9.18-4.33.42-2.55.42-5.25-.64-7.71.75l6.36,9.55C123.4,14.94,125,18.55,126.67,22.14Z"/><path class="cls-2" d="M205.26,55.66c2.15,4.35,5.38,5.87,10.22,4.54,2.8-.77,5.82-.74,8.75-1.07h0l11.43-1.71-9.21-12h0q-9.91-11.39-19-23.46h0a119.72,119.72,0,0,1-9.55-11.77c-2.2-1-1.83,1.38-2.73,2.08q-2,4.44-4,8.87a70.25,70.25,0,0,1-3.3,7.4c-1.37,2.36-1.29,4.3.53,6.24Q197.2,44.94,205.26,55.66Z"/><path class="cls-3" d="M137,195.05c.39-.85.77-1.7,1.16-2.56L84.8,146.3l-3.2,7q-2.34,5.11-4.66,10.24h0l-5.28,11.6q-2.32,5.12-4.66,10.23c-.16.35-.31.7-.47,1l53.39,46.2q1.1-2.43,2.21-4.86l5.27-11.6q2.34-5.12,4.66-10.23Z"/><path class="cls-3" d="M51.42,166q2.64-5.8,5.27-11.6l4.66-10.24,5-10.92c.32-.69.63-1.39,1-2.09L49.34,115.62q-1.55,3.42-3.1,6.82h0q-2.48,5.46-5,10.92t-5,10.91h0q-2.49,5.46-5,10.92l-.27.59L49,171.29Q50.2,168.64,51.42,166Z"/><path class="cls-3" d="M152.31,215.18q-2.34,5.12-4.66,10.24L142.37,237l-4.92,10.81,17.93,15.51,2.1-4.62,5.28-11.6q2.33-5.12,4.66-10.24l5-10.92h0c.43-.93.85-1.86,1.27-2.78l-17.92-15.52Z"/><path class="cls-3" d="M147,173.21,151.62,163c.44-.95.87-1.91,1.3-2.86L99.53,113.93l-3,6.67q-2.32,5.12-4.66,10.23l-.55,1.22,53.39,46.19Z"/><path class="cls-3" d="M76.26,111.38q2.47-5.46,5-10.91L82,98.76,64.07,83.25c-1,2.15-1.95,4.29-2.92,6.43q-2.49,5.46-5,10.92l-.35.77,17.93,15.51Z"/><path class="cls-3" d="M167.21,182.43q-2.33,5.12-4.66,10.23l-.34.75,17.93,15.51,2.18-4.79h0l5-10.92,1.09-2.41-17.92-15.51Q168.83,178.86,167.21,182.43Z"/></g></g></svg>